<svg width="120" height="120" viewBox="0 0 120 120" fill="currentColor" xmlns="http://www.w3.org/2000/svg">
<path d="M102.539 90.6094L71.9297 60L102.539 29.3906C105.844 26.0859 105.844 20.7656 102.539 17.4609C99.2344 14.1563 93.9141 14.1563 90.6094 17.4609L60 48.0703L29.3906 17.4609C26.0859 14.1563 20.7656 14.1563 17.4609 17.4609C14.1563 20.7656 14.1563 26.0859 17.4609 29.3906L48.0703 60L17.4609 90.6094C14.1563 93.9141 14.1563 99.2344 17.4609 102.539C20.7656 105.844 26.0859 105.844 29.3906 102.539L60 71.9297L90.6094 102.539C93.9141 105.844 99.2344 105.844 102.539 102.539C105.82 99.2344 105.82 93.8906 102.539 90.6094Z"/>
</svg>
