<svg width="120" height="120" viewBox="0 0 120 120" fill="currentColor" xmlns="http://www.w3.org/2000/svg">
<path d="M83.9063 54.8098L84.0031 54.8006C83.971 54.7685 83.9923 54.7769 83.9597 54.7451L65.5777 36.3281H65.5767C64.2096 34.9219 62.2503 33.9483 60.0724 33.9483C57.3042 33.9483 54.8892 35.3906 53.5955 37.7344H53.5939C53.5939 37.7344 51.9321 40.3111 49.3118 44.5017L56.9363 53.7916C57.6251 54.675 57.7088 55.62 57.267 56.0625L57.2403 56.0791C57.0272 56.2922 56.7666 56.3909 56.4729 56.3909C56.0257 56.3909 55.5021 56.1588 54.953 55.7421L46.5455 48.8473C41.0269 57.6726 33.2618 70.0896 26.9869 80.1248L31.4569 85.5945C32.1457 86.478 32.2294 87.4423 31.7874 87.8848L31.7606 87.9115C31.5471 88.1255 31.2853 88.226 30.9903 88.226C30.5438 88.226 30.0209 87.9961 29.4734 87.5803L24.5358 83.7054C19.8596 91.1838 16.4063 96.6713 15.9375 97.117V97.1177C15.2344 98.3041 14.9801 99.7268 14.9801 101.258C14.9801 105.396 18.4153 108.75 22.5469 108.75C24.3799 108.75 25.9617 107.954 27.4217 106.992L54.293 87.2791L47.5341 78.9921C46.845 78.1087 46.7681 77.1436 47.2102 76.7011L47.2402 76.6744C47.4539 76.4606 47.7169 76.3601 48.0122 76.3601C48.4587 76.3601 48.9825 76.59 49.53 77.0058L58.4044 84.4097C71.2571 74.977 83.2224 66.3281 83.2224 66.3281H83.2235C85.0608 64.9219 86.1469 62.6459 86.1469 60.1786C86.1469 58.1386 85.3125 56.1614 83.9063 54.8105V54.8098ZM80.9839 63.2423C80.3595 63.6956 70.0404 71.1952 58.5392 79.6249L51.9129 74.1211L51.852 74.0688L51.7878 74.0194C50.5585 73.0863 49.2886 72.6136 48.0124 72.6136C46.7316 72.6136 45.5299 73.1051 44.6239 73.9985L44.6089 74.013L44.5894 74.0323L44.5699 74.0517C42.7399 75.8848 42.751 78.9321 44.596 81.2979L44.6217 81.3314L44.6482 81.3637L48.9192 86.5931L25.328 103.912C24.1406 104.687 23.3529 105.004 22.6228 105.004C20.5552 105.004 18.8728 103.323 18.8728 101.258C18.8728 100.535 19.0355 99.8412 19.3456 99.2369C19.906 98.4961 20.8924 96.9223 23.7178 92.3578C24.3139 91.395 24.9488 90.3687 25.6242 89.2807L27.1219 90.4938L27.1676 90.5304L27.2145 90.566C28.4438 91.4991 29.7141 91.9723 30.9905 91.9723C32.2835 91.9723 33.4964 91.4709 34.4056 90.5606L34.4323 90.5341C36.2618 88.702 36.2501 85.6545 34.4046 83.2882L34.3781 83.2544L34.3512 83.2212L31.5823 79.8333L41.8228 63.457L47.4617 54.4397L52.5839 58.6402L52.6381 58.6847L52.6943 58.7271C53.9257 59.6618 55.197 60.1357 56.4731 60.1357C57.6342 60.1357 58.7304 59.7314 59.5995 58.9896L59.7075 58.9106L59.9117 58.7058C61.7374 56.8769 61.7257 53.8359 59.884 51.4744L59.8559 51.4385L59.8268 51.4034L53.9114 44.2458C54.6045 43.1435 55.1904 42.2557 55.647 41.5533L56.8678 39.5625C57.5187 38.3848 58.6868 37.6507 60.0724 37.6507C61.096 37.6507 62.1256 38.1293 62.8983 38.9234L64.0001 40.0784H64.0287L80.1563 56.317V56.4052L81.3717 57.5105C82.0264 58.1409 82.4356 59.1 82.4356 60.1418C82.4356 61.3596 81.9064 62.5144 80.9839 63.2423Z"/>
<path d="M103.124 26.9941L102.004 27.6417L80.5261 40.0617L95.464 14.1464L96.0539 13.1231L92.8151 11.25L92.232 12.2609L75.6441 41.0386L79.5511 44.9517L103.917 30.8611L104.994 30.2386L103.124 26.9941Z"/>
</svg>
