<svg width="120" height="120" viewBox="0 0 120 120" fill="currentColor" xmlns="http://www.w3.org/2000/svg">
<path d="M93.1875 34.3828L92.7656 33.9844H97.0781L99.0703 35.8125L104.344 30.4688L94.7812 21.0234L89.3438 26.25L91.4062 28.4062V32.7656L90.2344 31.6641C82.8984 25.0313 73.8281 21.0703 63.75 20.2031V11.25H56.25V20.1562H55.7812C45.5391 20.8594 35.8594 25.4297 28.5938 32.5781V28.4062L30.6797 26.25L25.3125 21.0469L15.75 30.4688L21.0234 35.8125L23.0156 33.9844H27.1875C27.1172 33.9844 27.0234 34.1484 26.9531 34.2422C19.2656 42.4688 15 53.2031 15 64.3594C15 88.8281 35.1797 108.75 60.0234 108.75C84.8203 108.75 105 88.8516 105 64.3828C105 53.2266 100.781 42.5625 93.1875 34.3828ZM60.0703 104.461C37.6875 104.461 19.5 86.4844 19.5 64.4062C19.5 42.3047 37.7109 24.3516 60.0703 24.3516C82.4531 24.3516 100.641 42.3281 100.641 64.4062C100.664 86.4844 82.4531 104.461 60.0703 104.461Z"/>
<path d="M61.875 60.3047V30H58.125V60.3281C55.1953 61.3359 52.5 64.1953 52.5 67.4297C52.5 70.875 54.8438 73.7578 58.125 74.5781L60 78.75L61.875 74.5781C65.1562 73.7578 67.5 70.875 67.5 67.4297C67.5 64.0313 65.0391 61.1719 61.875 60.3047Z"/>
</svg>
