<svg width="120" height="120" viewBox="0 0 120 120" fill="currentColor" xmlns="http://www.w3.org/2000/svg">
<path d="M37.5 93.75C34.395 93.75 31.875 96.27 31.875 99.375C31.875 102.48 34.395 105 37.5 105C40.605 105 43.125 102.48 43.125 99.375C43.125 96.27 40.605 93.75 37.5 93.75ZM37.5 101.25C36.4662 101.25 35.625 100.409 35.625 99.375C35.625 98.3412 36.4662 97.5 37.5 97.5C38.5338 97.5 39.375 98.3412 39.375 99.375C39.375 100.409 38.5338 101.25 37.5 101.25Z" />
<path d="M90.1172 93.75C87.0122 93.75 84.4922 96.27 84.4922 99.375C84.4922 102.48 87.0122 105 90.1172 105C93.2222 105 95.7422 102.48 95.7422 99.375C95.7422 96.27 93.2222 93.75 90.1172 93.75ZM90.1172 101.25C89.0834 101.25 88.2422 100.409 88.2422 99.375C88.2422 98.3412 89.0834 97.5 90.1172 97.5C91.151 97.5 91.9922 98.3412 91.9922 99.375C91.9922 100.409 91.151 101.25 90.1172 101.25Z" />
<path d="M105 30L28.8696 22.417C28.488 20.783 27.8456 18.9811 26.0951 17.5732C23.9121 15.8177 20.3864 15 15 15V18.7502C19.3627 18.7502 22.3048 19.3376 23.745 20.4956C24.7898 21.3359 25.0678 22.4698 25.4243 24.243L25.4187 24.244L35.2746 79.0029C35.8402 82.383 36.9607 84.9113 38.3897 86.734C40.0882 88.9013 42.3124 90 45 90H101.25V86.25H45C43.8921 86.25 40.515 86.2788 38.9651 78.3387L37.6927 71.2699L101.25 60L105 30ZM98.107 56.8003L37.0287 67.5792L29.5915 26.2589L100.811 33.4327L98.107 56.8003Z" />
</svg>
