<svg width="120" height="120" viewBox="0 0 120 120" fill="currentColor" xmlns="http://www.w3.org/2000/svg">
<path d="M105.757 44.0855C101.41 39.836 95.6133 37.5 89.434 37.5C83.2552 37.5 77.4586 39.836 73.1116 44.0855L63.2142 53.7387L66.4132 56.8903L76.3106 47.2092C79.8106 43.804 84.4584 41.9187 89.407 41.9187C94.3554 41.9187 99.0038 43.804 102.503 47.2092C109.721 54.273 109.721 65.7553 102.503 72.7908C99.0038 76.196 94.3554 78.0813 89.407 78.0813C84.4584 78.0813 79.8106 76.196 76.3106 72.7908L46.8916 44.0855C42.517 39.836 36.7207 37.5 30.5688 37.5C24.39 37.5 18.5934 39.836 14.2463 44.0855C9.75352 48.4709 7.50493 54.244 7.50001 60C7.49509 65.7682 9.74368 71.5193 14.2463 75.9145C18.5934 80.1638 24.3898 82.5 30.5688 82.5C36.7481 82.5 42.5442 80.1638 46.8919 75.9145L56.7616 66.2616L53.5631 63.1376L43.6657 72.7908C40.166 76.196 35.5179 78.0813 30.5691 78.0813C25.6207 78.0813 20.9728 76.196 17.4731 72.7908C10.2546 65.7267 10.2546 54.2447 17.4731 47.2092C20.9728 43.804 25.6207 41.9187 30.5691 41.9187C35.5179 41.9187 40.166 43.804 43.6657 47.2092L73.0845 75.9148C77.4586 80.1638 83.2552 82.5 89.407 82.5C95.5859 82.5 101.382 80.1638 105.73 75.9145C110.241 71.5383 112.496 65.7656 112.5 60C112.504 54.2341 110.255 48.4758 105.757 44.0855Z" />
</svg>
