<svg width="120" height="120" viewBox="0 0 120 120" fill="currentColor" xmlns="http://www.w3.org/2000/svg">
<path d="M85.1484 85.2891C82.125 84.2109 77.7891 83.8359 75.0234 83.2266C73.4297 82.875 71.1094 81.9844 70.3359 81.0703C69.5625 80.1328 70.0312 71.4844 70.0312 71.4844C70.0312 71.4844 71.4609 69.2344 72.2344 67.2656C73.0078 65.2969 73.8516 59.9063 73.8516 59.9063C73.8516 59.9063 75.4453 59.9062 76.0078 57.1172C76.6172 54.0703 77.5547 52.8047 77.4375 50.5313C77.3203 48.4219 76.2188 48.3047 76.1016 48.3047C76.1016 48.3047 77.25 45.1172 77.4141 38.3672C77.6016 30.375 71.4844 22.5 60 22.5C48.5156 22.5 42.4219 30.3516 42.5859 38.3438C42.7266 45.0703 43.8984 48.2812 43.8984 48.2812C43.7813 48.2812 42.6797 48.3984 42.5625 50.5078C42.4453 52.7812 43.4062 54 43.9922 57.0469C44.5547 59.8359 46.1484 59.8594 46.1484 59.8594C46.1484 59.8594 46.9922 65.2734 47.7656 67.2422C48.5391 69.2344 49.9687 71.4609 49.9687 71.4609C49.9687 71.4609 50.4375 80.1094 49.6641 81.0469C48.8906 81.9844 46.5703 82.8516 44.9766 83.2031C42.1875 83.8125 37.875 84.2109 34.8516 85.2891C31.8281 86.3672 22.5 90 22.5 97.5H60H97.5C97.5 90 88.1719 86.3672 85.1484 85.2891Z" />
</svg>
