<svg width="120" height="120" viewBox="0 0 120 120" fill="currentColor" xmlns="http://www.w3.org/2000/svg">
<path d="M97.8281 52.5H22.1719C18.2109 52.5 15 55.8516 15 60C15 64.1484 18.2109 67.5 22.1719 67.5H97.8281C101.789 67.5 105 64.1484 105 60C105 55.8516 101.789 52.5 97.8281 52.5Z"/>
<path d="M97.8281 22.5H22.1719C18.2109 22.5 15 25.8516 15 30C15 34.1484 18.2109 37.5 22.1719 37.5H97.8281C101.789 37.5 105 34.1484 105 30C105 25.8516 101.789 22.5 97.8281 22.5Z"/>
<path d="M97.8281 82.5H22.1719C18.2109 82.5 15 85.8516 15 90C15 94.1484 18.2109 97.5 22.1719 97.5H97.8281C101.789 97.5 105 94.1484 105 90C105 85.8516 101.789 82.5 97.8281 82.5Z"/>
</svg>
