<svg width="120" height="120" viewBox="0 0 120 120" fill="currentColor" xmlns="http://www.w3.org/2000/svg">
<g clip-path="url(#clip0_203_30)">
<path d="M119.203 34.875C119.203 24.3281 111.445 15.8437 101.859 15.8437C88.875 15.2344 75.6328 15 62.1094 15C61.4062 15 60.7031 15 60 15C59.2969 15 58.5937 15 57.8906 15C44.3906 15 31.125 15.2344 18.1406 15.8437C8.57812 15.8437 0.820311 24.375 0.820311 34.9219C0.234373 43.2656 -0.0234392 51.6094 -1.69108e-06 59.9531C-0.0234392 68.2969 0.234373 76.6406 0.796873 85.0078C0.796873 95.5547 8.55469 104.109 18.1172 104.109C31.7578 104.742 45.75 105.023 59.9766 105C74.2266 105.047 88.1719 104.766 101.836 104.109C111.422 104.109 119.18 95.5547 119.18 85.0078C119.742 76.6406 120 68.2969 119.977 59.9297C120.023 51.5859 119.766 43.2422 119.203 34.875ZM48.5156 82.9453V36.8906L82.5 59.9063L48.5156 82.9453Z" />
</g>
<defs>
<clipPath id="clip0_203_30">
<rect width="120" height="120" fill="white"/>
</clipPath>
</defs>
</svg>
