<svg width="120" height="120" viewBox="0 0 120 120" fill="currentColor" xmlns="http://www.w3.org/2000/svg">
<path d="M115.312 25.6641C111.234 27.4687 106.875 28.6875 102.281 29.25C106.969 26.4375 110.578 21.9844 112.266 16.6875C107.883 19.2891 103.031 21.1875 97.8516 22.1953C93.7031 17.7656 87.7969 15 81.2812 15C68.7422 15 58.5937 25.1719 58.5937 37.7109C58.5937 39.4922 58.7812 41.2266 59.1797 42.8906C40.3125 41.9531 23.5781 32.9062 12.3984 19.1484C10.4531 22.5 9.32812 26.4141 9.32812 30.5625C9.32812 38.4375 13.3594 45.3984 19.4531 49.4766C15.7031 49.3828 12.1875 48.3516 9.14062 46.6406C9.14062 46.7344 9.14062 46.8281 9.14062 46.9219C9.14062 57.9375 16.9687 67.1016 27.3516 69.1875C25.4531 69.7031 23.4375 69.9844 21.375 69.9844C19.9219 69.9844 18.4922 69.8437 17.1094 69.5625C19.9922 78.5859 28.3828 85.1484 38.3203 85.3359C30.5625 91.4297 20.7656 95.0625 10.125 95.0625C8.29688 95.0625 6.49219 94.9453 4.71094 94.7344C14.7188 101.25 26.6484 105 39.4453 105C81.2344 105 104.062 70.3828 104.062 40.3594C104.062 39.375 104.039 38.3906 103.992 37.4297C108.422 34.2187 112.266 30.2344 115.312 25.6641Z" />
</svg>
