<svg width="178" height="53" viewBox="0 0 178 53" fill="none" xmlns="http://www.w3.org/2000/svg">
<g clip-path="url(#clip0_211_35)">
<path d="M171.404 53H6.59591C2.97005 53 0.003479 50.0188 0.003479 46.3751V6.62588C0.003479 2.98217 2.97005 0.000999451 6.59591 0.000999451H171.404C175.03 0.000999451 177.997 2.98217 177.997 6.62588V46.3751C177.997 50.0188 175.03 53 171.404 53Z" fill="#100F0D"/>
<path d="M171.404 0.000999451H6.59591C2.97005 0.000999451 0.003479 2.98217 0.003479 6.62588V46.3751C0.003479 50.0188 2.97005 53 6.59591 53H171.404C175.03 53 177.997 50.0188 177.997 46.3751V6.62588C177.997 2.98217 175.03 0.000999451 171.404 0.000999451ZM171.404 1.06044C174.458 1.06044 176.942 3.55726 176.942 6.62588V46.3751C176.942 49.4438 174.458 51.9406 171.404 51.9406H6.59591C3.54232 51.9406 1.05882 49.4438 1.05882 46.3751V6.62588C1.05882 3.55726 3.54232 1.06044 6.59591 1.06044H171.404Z" fill="#A2A2A1"/>
<path d="M140.996 39.7503H143.456V23.1853H140.996V39.7503ZM163.156 29.1528L160.336 36.3341H160.251L157.324 29.1528H154.674L159.065 39.1898L156.561 44.7732H159.127L165.892 29.1533L163.156 29.1528ZM149.203 37.8687C148.398 37.8687 147.274 37.4634 147.274 36.4619C147.274 35.1834 148.674 34.6933 149.882 34.6933C150.963 34.6933 151.473 34.9273 152.13 35.2472C151.939 36.7817 150.624 37.8687 149.203 37.8687ZM149.501 28.7905C147.719 28.7905 145.875 29.5793 145.111 31.3267L147.295 32.2428C147.762 31.3267 148.63 31.0286 149.543 31.0286C150.815 31.0286 152.109 31.7951 152.13 33.1594V33.3297C151.684 33.0739 150.729 32.6905 149.564 32.6905C147.209 32.6905 144.813 33.99 144.813 36.4195C144.813 38.6357 146.744 40.0637 148.906 40.0637C150.559 40.0637 151.473 39.3178 152.044 38.4438H152.13V39.7231H154.506V33.372C154.506 30.4312 152.319 28.7905 149.501 28.7905ZM134.295 31.1693H130.796V25.4916H134.295C136.135 25.4916 137.179 27.0216 137.179 28.3304C137.179 29.614 136.135 31.1693 134.295 31.1693ZM134.232 23.1857H128.337V39.7507H130.796V33.4752H134.232C136.959 33.4752 139.639 31.4918 139.639 28.331C139.639 25.1708 136.959 23.1857 134.232 23.1857ZM102.086 37.8715C100.387 37.8715 98.9641 36.4408 98.9641 34.4778C98.9641 32.4919 100.387 31.0411 102.086 31.0411C103.764 31.0411 105.081 32.492 105.081 34.4778C105.081 36.4408 103.764 37.8715 102.086 37.8715ZM104.911 30.0801H104.826C104.274 29.4185 103.212 28.8208 101.874 28.8208C99.0697 28.8208 96.4997 31.2974 96.4997 34.4778C96.4997 37.6365 99.0697 40.0913 101.874 40.0913C103.212 40.0913 104.274 39.4935 104.826 38.8109H104.911V39.6213C104.911 41.7781 103.764 42.9302 101.916 42.9302C100.409 42.9302 99.4741 41.8417 99.0914 40.924L96.9464 41.8204C97.5618 43.314 99.197 45.1505 101.916 45.1505C104.806 45.1505 107.249 43.4424 107.249 39.2796V29.1622H104.911L104.911 30.0801ZM108.948 39.7498H111.411V23.1848H108.948V39.7498ZM115.044 34.2853C114.98 32.1079 116.723 30.9981 117.975 30.9981C118.953 30.9981 119.78 31.4893 120.057 32.1932L115.044 34.2853ZM122.69 32.4065C122.223 31.1478 120.8 28.8208 117.89 28.8208C115.001 28.8208 112.601 31.1048 112.601 34.4561C112.601 37.6154 114.98 40.0914 118.166 40.0914C120.736 40.0914 122.223 38.5123 122.84 37.5941L120.928 36.3131C120.29 37.2526 119.42 37.8716 118.166 37.8716C116.913 37.8716 116.021 37.2951 115.448 36.1637L122.945 33.0474L122.69 32.4065ZM62.9525 30.55V32.9406H68.6451C68.4751 34.2854 68.0291 35.2671 67.3492 35.9503C66.5206 36.7825 65.2248 37.7007 62.9524 37.7007C59.4475 37.7007 56.7076 34.8619 56.7076 31.3398C56.7076 27.8177 59.4475 24.9785 62.9524 24.9785C64.843 24.9785 66.2234 25.7257 67.243 26.6863L68.9216 24.9996C67.498 23.6337 65.6078 22.5878 62.9524 22.5878C58.1512 22.5878 54.1154 26.5155 54.1154 31.3398C54.1154 36.1636 58.1512 40.0914 62.9524 40.0914C65.5435 40.0914 67.498 39.2375 69.0272 37.6366C70.5991 36.057 71.0878 33.8371 71.0878 32.0438C71.0878 31.4894 71.045 30.9771 70.9601 30.55H62.9525ZM77.5604 37.8715C75.8607 37.8715 74.395 36.4626 74.395 34.4561C74.395 32.4283 75.8607 31.0412 77.5604 31.0412C79.2594 31.0412 80.7251 32.4283 80.7251 34.4561C80.7251 36.4626 79.2594 37.8715 77.5604 37.8715ZM77.5604 28.8208C74.4582 28.8208 71.9309 31.1901 71.9309 34.4561C71.9309 37.7007 74.4582 40.0914 77.5604 40.0914C80.6614 40.0914 83.1891 37.7007 83.1891 34.4561C83.1891 31.1901 80.6614 28.8208 77.5604 28.8208ZM89.8394 37.8715C88.1409 37.8715 86.6747 36.4626 86.6747 34.4561C86.6747 32.4283 88.141 31.0412 89.8394 31.0412C91.5391 31.0412 93.0044 32.4283 93.0044 34.4561C93.0044 36.4626 91.5391 37.8715 89.8394 37.8715ZM89.8394 28.8208C86.7385 28.8208 84.2112 31.1901 84.2112 34.4561C84.2112 37.7007 86.7385 40.0914 89.8394 40.0914C92.9416 40.0914 95.4689 37.7007 95.4689 34.4561C95.4689 31.1901 92.9416 28.8208 89.8394 28.8208Z" fill="white"/>
<path d="M27.3151 25.7373L13.2788 40.7092C13.2793 40.7123 13.2804 40.7149 13.2809 40.7181C13.7114 42.3439 15.189 43.5409 16.9427 43.5409C17.6438 43.5409 18.302 43.3505 18.8664 43.0161L18.9113 42.9897L34.7117 33.8273L27.3151 25.7373Z" fill="#EB3131"/>
<path d="M41.5165 23.1883L41.5031 23.1791L34.6815 19.205L26.9962 26.0775L34.7082 33.8265L41.4938 29.892C42.6834 29.2466 43.491 27.9863 43.491 26.5329C43.491 25.09 42.6944 23.8358 41.5165 23.1883Z" fill="#F6B60B"/>
<path d="M13.2768 12.2928C13.1924 12.6055 13.1481 12.933 13.1481 13.2731V39.7299C13.1481 40.0694 13.1919 40.398 13.2773 40.7096L27.7982 26.1203L13.2768 12.2928Z" fill="#5778C5"/>
<path d="M27.4189 26.5015L34.6846 19.2023L18.9019 10.0066C18.3282 9.66134 17.6587 9.46206 16.9422 9.46206C15.1885 9.46206 13.7089 10.6613 13.2783 12.289C13.2778 12.2906 13.2778 12.2917 13.2778 12.2931L27.4189 26.5015Z" fill="#3BAD49"/>
<path d="M62.4909 12.9606H58.6446V13.9171H61.5268C61.4485 14.6976 61.1394 15.3104 60.6182 15.7555C60.097 16.2007 59.4316 16.4242 58.6446 16.4242C57.7814 16.4242 57.05 16.122 56.4507 15.5217C55.8634 14.9089 55.5648 14.1511 55.5648 13.2381C55.5648 12.3252 55.8634 11.5674 56.4507 10.9547C57.05 10.3543 57.7814 10.0541 58.6446 10.0541C59.0876 10.0541 59.5099 10.1307 59.8971 10.2984C60.2845 10.466 60.5955 10.7 60.8387 11.0002L61.57 10.2653C61.2383 9.88635 60.8181 9.59657 60.2967 9.38537C59.7755 9.17417 59.2317 9.07281 58.6445 9.07281C57.4929 9.07281 56.5165 9.47441 55.7192 10.2757C54.9219 11.0789 54.5222 12.0685 54.5222 13.2381C54.5222 14.4078 54.9218 15.3996 55.7192 16.2008C56.5165 17.0019 57.4929 17.4037 58.6445 17.4037C59.8538 17.4037 60.818 17.0144 61.5596 16.2235C62.2127 15.5652 62.5464 14.675 62.5464 13.5612C62.5464 13.3728 62.5238 13.1718 62.4909 12.9606ZM63.9809 9.25068V17.2255H68.6141V16.2462H65.0007V13.7164H68.2599V12.7599H65.0007V10.2321H68.6141V9.25065L63.9809 9.25068ZM75.1109 10.2321V9.25068H69.6576V10.2321H71.8744V17.2255H72.8942V10.2321H75.1109ZM80.0479 9.25068H79.0282V17.2255H80.0479V9.25068ZM86.7789 10.2321V9.25068H81.3257V10.2321H83.5423V17.2255H84.5621V10.2321H86.7789ZM97.0692 10.288C96.2822 9.47435 95.3181 9.07274 94.1665 9.07274C93.0128 9.07274 92.0488 9.47434 91.2617 10.2756C90.4747 11.0665 90.0875 12.0581 90.0875 13.2381C90.0875 14.4181 90.4747 15.4098 91.2617 16.2008C92.0487 17.0018 93.0128 17.4036 94.1665 17.4036C95.3077 17.4036 96.2822 17.0019 97.0692 16.2008C97.8563 15.4099 98.2435 14.4182 98.2435 13.2381C98.2435 12.0684 97.8562 11.0787 97.0692 10.288ZM91.9931 10.9546C92.5802 10.3542 93.3013 10.054 94.1665 10.054C95.0297 10.054 95.7508 10.3543 96.3276 10.9546C96.9147 11.5446 97.2031 12.3147 97.2031 13.238C97.2031 14.1635 96.9147 14.9315 96.3276 15.5216C95.7507 16.1219 95.0297 16.4242 94.1665 16.4242C93.3013 16.4242 92.5802 16.1219 91.9931 15.5216C91.4182 14.9191 91.1299 14.1635 91.1299 13.238C91.1299 12.3147 91.4182 11.557 91.9931 10.9546ZM100.666 12.2589L100.623 10.7206H100.666L104.7 17.2254H105.765V9.2506H104.745V13.917L104.789 15.4553H104.745L100.889 9.2506H99.6465V17.2254H100.666V12.2589Z" fill="white" stroke="white" stroke-width="0.26666" stroke-miterlimit="10"/>
</g>
<defs>
<clipPath id="clip0_211_35">
<rect width="178" height="53" fill="white"/>
</clipPath>
</defs>
</svg>
