<svg width="178" height="53" viewBox="0 0 178 53" fill="none" xmlns="http://www.w3.org/2000/svg">
<g clip-path="url(#clip0_210_2)">
<path d="M171.667 53H6.23527C2.7979 53 0 50.1804 0 46.7288V6.26195C0 2.809 2.7979 0 6.23527 0H171.667C175.103 0 178 2.809 178 6.26195V46.7288C178 50.1804 175.103 53 171.667 53Z" fill="#A6A6A6"/>
<path d="M176.724 46.7301C176.724 49.5338 174.464 51.8049 171.668 51.8049H6.23525C3.44131 51.8049 1.17346 49.5338 1.17346 46.7301V6.26063C1.17346 3.45825 3.44131 1.17925 6.23525 1.17925H171.667C174.464 1.17925 176.722 3.45825 176.722 6.26063L176.724 46.7301Z" fill="black"/>
<path d="M39.7243 26.2138C39.6861 21.9433 43.2039 19.8657 43.3647 19.769C41.3724 16.85 38.2845 16.4512 37.1993 16.4194C34.6058 16.1451 32.0901 17.9789 30.7689 17.9789C29.4214 17.9789 27.3869 16.4459 25.1942 16.491C22.3726 16.5347 19.7329 18.1764 18.2852 20.7257C15.2974 25.9236 17.5257 33.5623 20.3882 37.7638C21.8201 39.8216 23.4933 42.1191 25.6834 42.0383C27.826 41.9495 28.6263 40.6656 31.2119 40.6656C33.7738 40.6656 34.5254 42.0383 36.7589 41.9866C39.0584 41.9495 40.5062 39.9196 41.888 37.8433C43.5427 35.4848 44.2073 33.1621 44.2336 33.0429C44.1796 33.0243 39.7678 31.3323 39.7243 26.2138Z" fill="white"/>
<path d="M35.505 13.6555C36.6574 12.2072 37.4459 10.237 37.227 8.23753C35.5591 8.31173 33.4732 9.3969 32.272 10.8133C31.2093 12.0615 30.26 14.1073 30.5052 16.0312C32.3788 16.1716 34.3025 15.0812 35.505 13.6555Z" fill="white"/>
<path d="M70.732 41.7428H67.7376L66.0974 36.5634H60.3961L58.8336 41.7428H55.9184L61.5669 24.1097H65.0557L70.732 41.7428ZM65.6029 34.3904L64.1196 29.786C63.9627 29.3156 63.6686 28.2079 63.2349 26.4642H63.1821C63.0094 27.2142 62.7312 28.3219 62.3488 29.786L60.8918 34.3904H65.6029Z" fill="white"/>
<path d="M85.2581 35.2291C85.2581 37.3915 84.6766 39.1007 83.5137 40.3555C82.4721 41.4725 81.1786 42.0303 79.6346 42.0303C77.968 42.0303 76.7708 41.4288 76.0417 40.2257H75.9889V46.9235H73.1778V33.2138C73.1778 31.8543 73.1422 30.4591 73.0737 29.0281H75.5459L75.7028 31.0434H75.7555C76.693 29.525 78.1157 28.7671 80.0249 28.7671C81.5175 28.7671 82.7635 29.3593 83.7603 30.5452C84.7597 31.7324 85.2581 33.2933 85.2581 35.2291ZM82.3943 35.3324C82.3943 34.0949 82.1174 33.0746 81.561 32.2717C80.9531 31.4343 80.137 31.0156 79.1138 31.0156C78.4203 31.0156 77.79 31.2488 77.227 31.7086C76.6627 32.1723 76.2935 32.7778 76.1208 33.5278C76.0337 33.8776 75.9902 34.1638 75.9902 34.389V36.509C75.9902 37.4339 76.2724 38.2143 76.8367 38.8516C77.401 39.489 78.1341 39.807 79.036 39.807C80.0948 39.807 80.9189 39.3962 81.5082 38.5774C82.0989 37.7572 82.3943 36.676 82.3943 35.3324Z" fill="white"/>
<path d="M99.8106 35.2291C99.8106 37.3915 99.2291 39.1007 98.0648 40.3555C97.0245 41.4725 95.7311 42.0303 94.1871 42.0303C92.5205 42.0303 91.3232 41.4288 90.5954 40.2257H90.5427V46.9235H87.7316V33.2138C87.7316 31.8543 87.696 30.4591 87.6274 29.0281H90.0997L90.2566 31.0434H90.3093C91.2455 29.525 92.6681 28.7671 94.5787 28.7671C96.0699 28.7671 97.3159 29.3593 98.3154 30.5452C99.3108 31.7324 99.8106 33.2933 99.8106 35.2291ZM96.9467 35.3324C96.9467 34.0949 96.6685 33.0746 96.1121 32.2717C95.5043 31.4343 94.6907 31.0156 93.6663 31.0156C92.9714 31.0156 92.3425 31.2488 91.7781 31.7086C91.2138 32.1723 90.8459 32.7778 90.6732 33.5278C90.5875 33.8776 90.5427 34.1638 90.5427 34.389V36.509C90.5427 37.4339 90.8248 38.2143 91.3865 38.8516C91.9509 39.4876 92.684 39.807 93.5885 39.807C94.6472 39.807 95.4713 39.3962 96.0607 38.5774C96.6514 37.7572 96.9467 36.676 96.9467 35.3324Z" fill="white"/>
<path d="M116.081 36.7979C116.081 38.2978 115.563 39.5181 114.523 40.4602C113.379 41.4897 111.788 42.0038 109.743 42.0038C107.855 42.0038 106.341 41.6381 105.195 40.9054L105.847 38.5509C107.081 39.3008 108.435 39.6771 109.91 39.6771C110.969 39.6771 111.793 39.436 112.385 38.9563C112.975 38.4767 113.269 37.8327 113.269 37.0298C113.269 36.3143 113.026 35.7114 112.54 35.2225C112.056 34.7336 111.247 34.2791 110.119 33.8591C107.047 32.7076 105.512 31.0209 105.512 28.8029C105.512 27.3533 106.05 26.1648 107.127 25.2399C108.2 24.3138 109.632 23.8513 111.423 23.8513C113.02 23.8513 114.346 24.1309 115.405 24.6887L114.702 26.9916C113.713 26.451 112.595 26.1807 111.344 26.1807C110.355 26.1807 109.582 26.4258 109.028 26.9134C108.56 27.3493 108.326 27.8807 108.326 28.51C108.326 29.207 108.593 29.7834 109.131 30.2365C109.599 30.6552 110.45 31.1084 111.684 31.5973C113.194 32.2081 114.302 32.9223 115.016 33.7411C115.726 34.5573 116.081 35.5789 116.081 36.7979Z" fill="white"/>
<path d="M125.375 31.1481H122.277V37.3213C122.277 38.8914 122.823 39.6758 123.917 39.6758C124.419 39.6758 124.836 39.6321 125.166 39.5446L125.243 41.6898C124.69 41.8978 123.961 42.0025 123.057 42.0025C121.947 42.0025 121.08 41.662 120.453 40.9822C119.83 40.3012 119.516 39.159 119.516 37.5545V31.1454H117.67V29.0254H119.516V26.6974L122.277 25.86V29.0254H125.375V31.1481Z" fill="white"/>
<path d="M139.356 35.2808C139.356 37.2352 138.799 38.8397 137.689 40.0945C136.525 41.3864 134.979 42.0303 133.053 42.0303C131.197 42.0303 129.718 41.4116 128.616 40.174C127.514 38.9365 126.963 37.3743 126.963 35.4915C126.963 33.5212 127.53 31.9073 128.668 30.6526C129.803 29.3965 131.335 28.7684 133.261 28.7684C135.118 28.7684 136.612 29.3872 137.739 30.6261C138.818 31.8278 139.356 33.3794 139.356 35.2808ZM136.439 35.3722C136.439 34.1996 136.19 33.1939 135.685 32.3552C135.095 31.3402 134.253 30.8341 133.161 30.8341C132.031 30.8341 131.173 31.3416 130.583 32.3552C130.078 33.1952 129.829 34.2168 129.829 35.4252C129.829 36.5978 130.078 37.6035 130.583 38.4409C131.191 39.4559 132.04 39.962 133.136 39.962C134.209 39.962 135.052 39.4453 135.66 38.4144C136.178 37.5598 136.439 36.5435 136.439 35.3722Z" fill="white"/>
<path d="M148.493 31.5125C148.215 31.4608 147.918 31.4343 147.607 31.4343C146.618 31.4343 145.853 31.8093 145.315 32.5605C144.847 33.223 144.613 34.0604 144.613 35.0714V41.7428H141.803L141.829 33.0322C141.829 31.5668 141.794 30.2325 141.724 29.0294H144.172L144.275 31.4621H144.353C144.649 30.6261 145.117 29.9529 145.758 29.4481C146.385 28.9936 147.061 28.7671 147.79 28.7671C148.05 28.7671 148.285 28.7856 148.493 28.8187V31.5125Z" fill="white"/>
<path d="M161.065 34.7839C161.065 35.2901 161.032 35.7167 160.962 36.0652H152.529C152.562 37.3213 152.969 38.2819 153.753 38.9444C154.463 39.5367 155.382 39.8335 156.511 39.8335C157.759 39.8335 158.899 39.6334 159.923 39.2319L160.364 41.1929C159.166 41.7176 157.753 41.9786 156.122 41.9786C154.16 41.9786 152.62 41.3983 151.499 40.2389C150.381 39.0795 149.821 37.5227 149.821 35.5696C149.821 33.6523 150.341 32.0557 151.384 30.7824C152.476 29.4229 153.952 28.7432 155.808 28.7432C157.632 28.7432 159.012 29.4229 159.95 30.7824C160.692 31.8623 161.065 33.1979 161.065 34.7839ZM158.384 34.0512C158.403 33.2138 158.22 32.4903 157.839 31.8795C157.352 31.0938 156.604 30.7016 155.598 30.7016C154.679 30.7016 153.932 31.0845 153.361 31.853C152.893 32.4638 152.615 33.1965 152.529 34.0498L158.384 34.0512Z" fill="white"/>
<path d="M64.6733 13.2619C64.6733 14.8214 64.2079 15.9954 63.2783 16.7838C62.4173 17.5112 61.1937 17.8756 59.6089 17.8756C58.823 17.8756 58.1506 17.8411 57.5876 17.7722V9.25115C58.322 9.1319 59.1131 9.07095 59.9675 9.07095C61.4772 9.07095 62.6151 9.40087 63.3825 10.0607C64.2421 10.8067 64.6733 11.8733 64.6733 13.2619ZM63.2163 13.3003C63.2163 12.2894 62.95 11.5142 62.4173 10.9736C61.8846 10.4344 61.1067 10.1641 60.0822 10.1641C59.6471 10.1641 59.2766 10.1932 58.9694 10.2542V16.7321C59.1395 16.7586 59.4507 16.7705 59.9029 16.7705C60.9604 16.7705 61.7765 16.475 62.3514 15.8841C62.9263 15.2931 63.2163 14.4319 63.2163 13.3003Z" fill="white"/>
<path d="M72.3985 14.624C72.3985 15.5847 72.1256 16.3717 71.5797 16.9891C71.0075 17.6238 70.2493 17.9405 69.3026 17.9405C68.3902 17.9405 67.6637 17.6371 67.1218 17.0276C66.5812 16.4194 66.3109 15.6522 66.3109 14.7274C66.3109 13.7601 66.5891 12.9665 67.1482 12.3503C67.7072 11.7342 68.4588 11.4255 69.4055 11.4255C70.3179 11.4255 71.051 11.7289 71.6061 12.3371C72.1335 12.928 72.3985 13.6912 72.3985 14.624ZM70.9653 14.6691C70.9653 14.0927 70.8413 13.5985 70.5948 13.1864C70.3047 12.6882 69.892 12.4391 69.3554 12.4391C68.8003 12.4391 68.3783 12.6882 68.0883 13.1864C67.8404 13.5985 67.7178 14.1007 67.7178 14.6943C67.7178 15.2706 67.8417 15.7649 68.0883 16.1769C68.3876 16.6751 68.8042 16.9242 69.3422 16.9242C69.8696 16.9242 70.2836 16.6712 70.5816 16.1637C70.8374 15.7437 70.9653 15.2455 70.9653 14.6691Z" fill="white"/>
<path d="M82.7568 11.5527L80.8119 17.7987H79.5462L78.7406 15.0864C78.5362 14.4094 78.3701 13.7363 78.2408 13.0685H78.2158C78.0958 13.7548 77.9297 14.4266 77.7161 15.0864L76.8603 17.7987H75.5801L73.7513 11.5527H75.1713L75.8741 14.522C76.0442 15.2242 76.1839 15.8934 76.296 16.5267H76.3211C76.4239 16.0047 76.594 15.3395 76.834 14.5352L77.7161 11.554H78.8421L79.6873 14.4716C79.8916 15.1832 80.0578 15.8682 80.1856 16.528H80.2239C80.3175 15.8854 80.4586 15.2004 80.6458 14.4716L81.4 11.554H82.7568V11.5527Z" fill="white"/>
<path d="M89.9203 17.7987H88.5385V14.2212C88.5385 13.1188 88.1218 12.5676 87.2859 12.5676C86.8758 12.5676 86.5449 12.7187 86.2878 13.0221C86.0333 13.3255 85.9041 13.6833 85.9041 14.0927V17.7974H84.5223V13.3375C84.5223 12.7889 84.5051 12.194 84.4722 11.55H85.6865L85.7511 12.5266H85.7894C85.9502 12.2231 86.1902 11.9727 86.5053 11.7726C86.8798 11.5394 87.2991 11.4215 87.7579 11.4215C88.3381 11.4215 88.8206 11.6097 89.2043 11.9873C89.6816 12.4497 89.9203 13.14 89.9203 14.0569V17.7987Z" fill="white"/>
<path d="M93.7308 17.7987H92.3503V8.6867H93.7308V17.7987Z" fill="white"/>
<path d="M101.866 14.624C101.866 15.5847 101.593 16.3717 101.047 16.9891C100.475 17.6238 99.7155 17.9405 98.7702 17.9405C97.8564 17.9405 97.1299 17.6371 96.5893 17.0276C96.0487 16.4194 95.7784 15.6522 95.7784 14.7274C95.7784 13.7601 96.0567 12.9665 96.6157 12.3503C97.1748 11.7342 97.9263 11.4255 98.8717 11.4255C99.7854 11.4255 100.517 11.7289 101.074 12.3371C101.601 12.928 101.866 13.6912 101.866 14.624ZM100.431 14.6691C100.431 14.0927 100.308 13.5985 100.061 13.1864C99.7722 12.6882 99.3582 12.4391 98.8229 12.4391C98.2665 12.4391 97.8446 12.6882 97.5558 13.1864C97.3079 13.5985 97.1853 14.1007 97.1853 14.6943C97.1853 15.2706 97.3092 15.7649 97.5558 16.1769C97.8551 16.6751 98.2718 16.9242 98.8097 16.9242C99.3371 16.9242 99.7498 16.6712 100.048 16.1637C100.305 15.7437 100.431 15.2455 100.431 14.6691Z" fill="white"/>
<path d="M108.554 17.7987H107.313L107.21 17.0793H107.172C106.747 17.653 106.142 17.9405 105.356 17.9405C104.769 17.9405 104.295 17.751 103.937 17.3747C103.613 17.0329 103.451 16.6076 103.451 16.1027C103.451 15.3395 103.767 14.7579 104.404 14.3551C105.04 13.9523 105.934 13.7548 107.085 13.7641V13.6475C107.085 12.8247 106.655 12.4139 105.794 12.4139C105.181 12.4139 104.64 12.569 104.173 12.8764L103.893 11.9648C104.47 11.6057 105.183 11.4255 106.025 11.4255C107.649 11.4255 108.464 12.2867 108.464 14.0092V16.3094C108.464 16.9335 108.494 17.4304 108.554 17.7987ZM107.119 15.6522V14.689C105.595 14.6625 104.833 15.0825 104.833 15.9477C104.833 16.2737 104.92 16.5175 105.098 16.6804C105.276 16.8434 105.503 16.9242 105.773 16.9242C106.076 16.9242 106.36 16.8275 106.618 16.6354C106.878 16.4419 107.037 16.1968 107.097 15.896C107.111 15.8285 107.119 15.7463 107.119 15.6522Z" fill="white"/>
<path d="M116.405 17.7987H115.179L115.115 16.7957H115.076C114.685 17.5589 114.018 17.9405 113.08 17.9405C112.331 17.9405 111.707 17.645 111.213 17.0541C110.719 16.4631 110.472 15.6959 110.472 14.7539C110.472 13.7429 110.74 12.924 111.278 12.2986C111.798 11.7156 112.437 11.4241 113.196 11.4241C114.031 11.4241 114.615 11.7064 114.947 12.2721H114.973V8.6867H116.357V16.116C116.357 16.7241 116.372 17.2846 116.405 17.7987ZM114.973 15.1646V14.1232C114.973 13.943 114.96 13.7972 114.935 13.6859C114.857 13.352 114.69 13.0711 114.436 12.8445C114.178 12.618 113.869 12.504 113.511 12.504C112.996 12.504 112.592 12.7094 112.296 13.1215C112.002 13.5335 111.853 14.0596 111.853 14.7022C111.853 15.3196 111.994 15.8205 112.277 16.2061C112.576 16.6168 112.98 16.8222 113.485 16.8222C113.938 16.8222 114.301 16.6513 114.577 16.3081C114.843 15.9914 114.973 15.6098 114.973 15.1646Z" fill="white"/>
<path d="M128.223 14.624C128.223 15.5847 127.95 16.3717 127.404 16.9891C126.832 17.6238 126.075 17.9405 125.127 17.9405C124.216 17.9405 123.49 17.6371 122.947 17.0276C122.406 16.4194 122.136 15.6522 122.136 14.7274C122.136 13.7601 122.414 12.9665 122.973 12.3503C123.532 11.7342 124.283 11.4255 125.232 11.4255C126.143 11.4255 126.877 11.7289 127.431 12.3371C127.958 12.928 128.223 13.6912 128.223 14.624ZM126.791 14.6691C126.791 14.0927 126.667 13.5985 126.421 13.1864C126.129 12.6882 125.718 12.4391 125.18 12.4391C124.626 12.4391 124.204 12.6882 123.913 13.1864C123.665 13.5985 123.542 14.1007 123.542 14.6943C123.542 15.2706 123.666 15.7649 123.913 16.1769C124.212 16.6751 124.629 16.9242 125.167 16.9242C125.694 16.9242 126.11 16.6712 126.408 16.1637C126.662 15.7437 126.791 15.2455 126.791 14.6691Z" fill="white"/>
<path d="M135.653 17.7987H134.273V14.2212C134.273 13.1188 133.856 12.5676 133.019 12.5676C132.609 12.5676 132.278 12.7187 132.022 13.0221C131.766 13.3255 131.638 13.6833 131.638 14.0927V17.7974H130.255V13.3375C130.255 12.7889 130.239 12.194 130.206 11.55H131.419L131.484 12.5266H131.522C131.684 12.2231 131.924 11.9727 132.238 11.7726C132.614 11.5394 133.032 11.4215 133.492 11.4215C134.071 11.4215 134.553 11.6097 134.937 11.9873C135.416 12.4497 135.653 13.14 135.653 14.0569V17.7987Z" fill="white"/>
<path d="M144.953 12.5928H143.431V15.627C143.431 16.3982 143.701 16.7838 144.237 16.7838C144.485 16.7838 144.69 16.7626 144.852 16.7188L144.888 17.7722C144.615 17.8756 144.256 17.9272 143.815 17.9272C143.269 17.9272 142.844 17.7603 142.537 17.4264C142.229 17.0925 142.076 16.5307 142.076 15.7423V12.5928H141.167V11.5527H142.076V10.4079L143.43 9.99712V11.5513H144.951L144.953 12.5928Z" fill="white"/>
<path d="M152.268 17.7987H150.885V14.2477C150.885 13.1281 150.468 12.5676 149.633 12.5676C148.993 12.5676 148.555 12.8922 148.315 13.5415C148.274 13.678 148.25 13.8449 148.25 14.041V17.7974H146.87V8.6867H148.25V12.451H148.277C148.712 11.766 149.335 11.4241 150.144 11.4241C150.716 11.4241 151.189 11.6123 151.565 11.9899C152.033 12.4603 152.268 13.1599 152.268 14.0847V17.7987Z" fill="white"/>
<path d="M159.814 14.3802C159.814 14.6293 159.795 14.8387 159.762 15.0096H155.618C155.637 15.6271 155.834 16.0974 156.218 16.4234C156.569 16.7149 157.021 16.8606 157.575 16.8606C158.188 16.8606 158.747 16.7626 159.251 16.5652L159.467 17.5297C158.877 17.7868 158.184 17.9153 157.381 17.9153C156.418 17.9153 155.66 17.6305 155.112 17.0607C154.561 16.491 154.288 15.7264 154.288 14.7671C154.288 13.8251 154.542 13.0407 155.055 12.4153C155.59 11.7475 156.314 11.4136 157.228 11.4136C158.122 11.4136 158.801 11.7475 159.26 12.4153C159.63 12.9453 159.814 13.6011 159.814 14.3802ZM158.495 14.0212C158.506 13.6091 158.415 13.254 158.227 12.9545C157.987 12.569 157.622 12.3755 157.128 12.3755C156.677 12.3755 156.309 12.5637 156.028 12.9413C155.799 13.2421 155.663 13.6011 155.618 14.0212H158.495Z" fill="white"/>
</g>
<defs>
<clipPath id="clip0_210_2">
<rect width="178" height="53" fill="white"/>
</clipPath>
</defs>
</svg>
